<svg xmlns="http://www.w3.org/2000/svg" viewBox="0 0 1200 630" preserveAspectRatio="xMidYMid slice">
  <defs>
    <linearGradient id="bg" x1="0" y1="0" x2="1" y2="1">
      <stop offset="0%" stop-color="#3A0E1B"/>
      <stop offset="55%" stop-color="#4A1222"/>
      <stop offset="100%" stop-color="#5B1828"/>
    </linearGradient>
    <radialGradient id="glow" cx="0.85" cy="0.15" r="0.5">
      <stop offset="0%" stop-color="#BB8950" stop-opacity="0.25"/>
      <stop offset="100%" stop-color="#BB8950" stop-opacity="0"/>
    </radialGradient>
  </defs>
  <rect width="1200" height="630" fill="url(#bg)"/>
  <rect width="1200" height="630" fill="url(#glow)"/>
  <g transform="translate(880,170)" opacity="0.2">
    <polygon points="100,10 190,60 190,180 100,230 10,180 10,60" fill="none" stroke="#BB8950" stroke-width="1.5"/>
    <polygon points="100,40 160,72 160,168 100,200 40,168 40,72" fill="none" stroke="#BB8950" stroke-width="1"/>
  </g>
  <!-- Icon: house with heart -->
  <g transform="translate(110,200)" stroke="#BB8950" stroke-width="6" fill="none" opacity="0.55" stroke-linecap="round" stroke-linejoin="round">
    <path d="M30 100 L90 40 L150 100 L150 170 L30 170 Z"/>
    <path d="M90 130 c -10 -15 -30 -15 -30 5 c 0 15 15 25 30 35 c 15 -10 30 -20 30 -35 c 0 -20 -20 -20 -30 -5 z"/>
  </g>
  <text x="100" y="170" font-family="Georgia, serif" font-size="22" fill="#BB8950" letter-spacing="6">CATEGORIA</text>
  <text x="100" y="370" font-family="Georgia, serif" font-size="76" font-weight="700" fill="#F7F4EE">Idosos &amp;</text>
  <text x="100" y="445" font-family="Georgia, serif" font-size="76" font-weight="700" fill="#F7F4EE">Reabilitação</text>
  <g transform="translate(100,540)">
    <text font-family="Georgia, serif" font-size="22" fill="#BB8950" letter-spacing="3">STUDIO RUBI</text>
    <text y="28" font-family="Inter, sans-serif" font-size="14" fill="#F7F4EE" opacity="0.55">Pilates &amp; Fisioterapia · Manaus</text>
  </g>
</svg>
