<svg xmlns="http://www.w3.org/2000/svg" viewBox="0 0 1200 630" preserveAspectRatio="xMidYMid slice">
  <defs>
    <linearGradient id="bg" x1="0" y1="0" x2="1" y2="1">
      <stop offset="0%" stop-color="#4A1222"/>
      <stop offset="50%" stop-color="#742239"/>
      <stop offset="100%" stop-color="#BB8950"/>
    </linearGradient>
    <radialGradient id="glow" cx="0.85" cy="0.15" r="0.5">
      <stop offset="0%" stop-color="#FBE688" stop-opacity="0.3"/>
      <stop offset="100%" stop-color="#FBE688" stop-opacity="0"/>
    </radialGradient>
  </defs>
  <rect width="1200" height="630" fill="url(#bg)"/>
  <rect width="1200" height="630" fill="url(#glow)"/>
  <g transform="translate(880,170)" opacity="0.22">
    <polygon points="100,10 190,60 190,180 100,230 10,180 10,60" fill="none" stroke="#FBE688" stroke-width="1.5"/>
    <polygon points="100,40 160,72 160,168 100,200 40,168 40,72" fill="none" stroke="#FBE688" stroke-width="1"/>
  </g>
  <!-- Icon: running figure (abstract) -->
  <g transform="translate(110,200)" stroke="#FBE688" stroke-width="6" fill="none" opacity="0.6" stroke-linecap="round" stroke-linejoin="round">
    <circle cx="60" cy="30" r="14"/>
    <path d="M55 50 L70 100 L110 110 M70 100 L50 160 M70 100 L35 90 M70 100 L100 70"/>
  </g>
  <text x="100" y="170" font-family="Georgia, serif" font-size="22" fill="#FBE688" letter-spacing="6">CATEGORIA</text>
  <text x="100" y="370" font-family="Georgia, serif" font-size="76" font-weight="700" fill="#F7F4EE">Esportes &amp;</text>
  <text x="100" y="445" font-family="Georgia, serif" font-size="76" font-weight="700" fill="#F7F4EE">Performance</text>
  <g transform="translate(100,540)">
    <text font-family="Georgia, serif" font-size="22" fill="#FBE688" letter-spacing="3">STUDIO RUBI</text>
    <text y="28" font-family="Inter, sans-serif" font-size="14" fill="#F7F4EE" opacity="0.6">Pilates &amp; Fisioterapia · Manaus</text>
  </g>
</svg>
