<svg xmlns="http://www.w3.org/2000/svg" viewBox="0 0 1200 630" preserveAspectRatio="xMidYMid slice">
  <defs>
    <linearGradient id="bg" x1="0" y1="0" x2="1" y2="1">
      <stop offset="0%" stop-color="#2B2224"/>
      <stop offset="50%" stop-color="#4A1222"/>
      <stop offset="100%" stop-color="#681D31"/>
    </linearGradient>
    <radialGradient id="glow" cx="0.85" cy="0.15" r="0.5">
      <stop offset="0%" stop-color="#DBB06B" stop-opacity="0.28"/>
      <stop offset="100%" stop-color="#DBB06B" stop-opacity="0"/>
    </radialGradient>
  </defs>
  <rect width="1200" height="630" fill="url(#bg)"/>
  <rect width="1200" height="630" fill="url(#glow)"/>
  <g transform="translate(880,170)" opacity="0.22">
    <polygon points="100,10 190,60 190,180 100,230 10,180 10,60" fill="none" stroke="#DBB06B" stroke-width="1.5"/>
    <polygon points="100,40 160,72 160,168 100,200 40,168 40,72" fill="none" stroke="#DBB06B" stroke-width="1"/>
  </g>
  <!-- Icon: balance/comparison -->
  <g transform="translate(110,210)" stroke="#DBB06B" stroke-width="6" fill="none" opacity="0.55" stroke-linecap="round">
    <line x1="20" y1="20" x2="220" y2="20"/>
    <circle cx="60" cy="50" r="22"/>
    <circle cx="180" cy="50" r="22"/>
    <line x1="120" y1="20" x2="120" y2="80"/>
  </g>
  <text x="100" y="170" font-family="Georgia, serif" font-size="22" fill="#DBB06B" letter-spacing="6">CATEGORIA</text>
  <text x="100" y="370" font-family="Georgia, serif" font-size="76" font-weight="700" fill="#F7F4EE">Métodos &amp;</text>
  <text x="100" y="445" font-family="Georgia, serif" font-size="76" font-weight="700" fill="#F7F4EE">Tratamentos</text>
  <g transform="translate(100,540)">
    <text font-family="Georgia, serif" font-size="22" fill="#DBB06B" letter-spacing="3">STUDIO RUBI</text>
    <text y="28" font-family="Inter, sans-serif" font-size="14" fill="#F7F4EE" opacity="0.55">Pilates &amp; Fisioterapia · Manaus</text>
  </g>
</svg>
